{
  "accessors": [
    {
      "bufferView": 2,
      "componentType": 5126,
      "count": 24,
      "max": [
        0.05682004988193512,
        0.004859075415879488,
        0.004449689295142889
      ],
      "min": [
        0.047056883573532104,
        -0.004893868695944548,
        -0.005330127198249102
      ],
      "type": "VEC3"
    },
    {
      "bufferView": 2,
      "byteOffset": 288,
      "componentType": 5126,
      "count": 24,
      "max": [
        0.9999876618385315,
        0.9999920129776001,
        0.999983012676239
      ],
      "min": [
        -0.9999876618385315,
        -0.9999920129776001,
        -0.999983012676239
      ],
      "type": "VEC3"
    },
    {
      "bufferView": 1,
      "componentType": 5126,
      "count": 24,
      "max": [
        0.7499567270278931,
        0.9999133944511414
      ],
      "min": [
        8.658754813950509e-05,
        8.660554885864258e-05
      ],
      "type": "VEC2"
    },
    {
      "bufferView": 0,
      "componentType": 5125,
      "count": 36,
      "type": "SCALAR"
    },
    {
      "bufferView": 2,
      "byteOffset": 576,
      "componentType": 5126,
      "count": 65532,
      "max": [
        0.025400858372449875,
        0.007279219105839729,
        0.009662085212767124
      ],
      "min": [
        -0.021886086091399193,
        -0.006405055522918701,
        -0.008135944604873657
      ],
      "type": "VEC3"
    },
    {
      "bufferView": 2,
      "byteOffset": 786960,
      "componentType": 5126,
      "count": 65532,
      "max": [
        0.9772874712944031,
        0.9999844431877136,
        0.9999988675117493
      ],
      "min": [
        -0.9980111718177795,
        -0.9999580979347229,
        -0.999998927116394
      ],
      "type": "VEC3"
    },
    {
      "bufferView": 1,
      "byteOffset": 192,
      "componentType": 5126,
      "count": 65532,
      "max": [
        0.9993230104446411,
        0.9993820190429688
      ],
      "min": [
        0.0007050000131130219,
        0.0003809928894042969
      ],
      "type": "VEC2"
    },
    {
      "bufferView": 0,
      "byteOffset": 144,
      "componentType": 5125,
      "count": 295074,
      "type": "SCALAR"
    },
    {
      "bufferView": 2,
      "byteOffset": 1573344,
      "componentType": 5126,
      "count": 65532,
      "max": [
        0.025468941777944565,
        0.007333948742598295,
        0.01005080621689558
      ],
      "min": [
        -0.02183775044977665,
        -0.0063082254491746426,
        -0.00933400820940733
      ],
      "type": "VEC3"
    },
    {
      "bufferView": 2,
      "byteOffset": 2359728,
      "componentType": 5126,
      "count": 65532,
      "max": [
        0.9922628998756409,
        0.9999716281890869,
        0.9999967217445374
      ],
      "min": [
        -0.9926528334617615,
        -0.9999790787696838,
        -0.9999974370002747
      ],
      "type": "VEC3"
    },
    {
      "bufferView": 1,
      "byteOffset": 524448,
      "componentType": 5126,
      "count": 65532,
      "max": [
        0.9996140003204346,
        0.9994660019874573
      ],
      "min": [
        0.0003499999875202775,
        0.00035202503204345703
      ],
      "type": "VEC2"
    },
    {
      "bufferView": 0,
      "byteOffset": 1180440,
      "componentType": 5125,
      "count": 254436,
      "type": "SCALAR"
    },
    {
      "bufferView": 2,
      "byteOffset": 3146112,
      "componentType": 5126,
      "count": 65534,
      "max": [
        0.025468941777944565,
        0.00732339546084404,
        0.010376396588981152
      ],
      "min": [
        -0.021899202838540077,
        -0.006385634653270245,
        -0.009361887350678444
      ],
      "type": "VEC3"
    },
    {
      "bufferView": 2,
      "byteOffset": 3932520,
      "componentType": 5126,
      "count": 65534,
      "max": [
        0.9961043000221252,
        0.9999844431877136,
        0.9999942183494568
      ],
      "min": [
        -0.9981891512870789,
        -0.9999790787696838,
        -0.9999978542327881
      ],
      "type": "VEC3"
    },
    {
      "bufferView": 1,
      "byteOffset": 1048704,
      "componentType": 5126,
      "count": 65534,
      "max": [
        0.999642014503479,
        0.9994279742240906
      ],
      "min": [
        0.0003600000054575503,
        0.00036197900772094727
      ],
      "type": "VEC2"
    },
    {
      "bufferView": 0,
      "byteOffset": 2198184,
      "componentType": 5125,
      "count": 164778,
      "type": "SCALAR"
    },
    {
      "bufferView": 2,
      "byteOffset": 4718928,
      "componentType": 5126,
      "count": 26949,
      "max": [
        0.025468941777944565,
        0.007333948742598295,
        0.010460864752531052
      ],
      "min": [
        -0.021899202838540077,
        -0.006419030018150806,
        -0.009361887350678444
      ],
      "type": "VEC3"
    },
    {
      "bufferView": 2,
      "byteOffset": 5042316,
      "componentType": 5126,
      "count": 26949,
      "max": [
        0.9980512261390686,
        0.9999464750289917,
        0.9999971389770508
      ],
      "min": [
        -0.9981891512870789,
        -0.9999649524688721,
        -0.999998927116394
      ],
      "type": "VEC3"
    },
    {
      "bufferView": 1,
      "byteOffset": 1572976,
      "componentType": 5126,
      "count": 26949,
      "max": [
        0.9996010065078735,
        0.9992799758911133
      ],
      "min": [
        0.00035200000274926424,
        0.0003889799118041992
      ],
      "type": "VEC2"
    },
    {
      "bufferView": 0,
      "byteOffset": 2857296,
      "componentType": 5125,
      "count": 39939,
      "type": "SCALAR"
    }
  ],
  "asset": {
    "extras": {
      "author": "ffish.asia / floraZia.com (https://sketchfab.com/ffishAsia-and-floraZia)",
      "license": "CC-BY-NC-4.0 (http://creativecommons.org/licenses/by-nc/4.0/)",
      "source": "https://sketchfab.com/3d-models/mosquitofish-gambusia-affinis-26b5da61bc7041219046aca02415451e",
      "title": "カダヤシ 🐟 ♀ Mosquitofish, Gambusia affinis"
    },
    "generator": "Sketchfab-15.46.0",
    "version": "2.0"
  },
  "bufferViews": [
    {
      "buffer": 0,
      "byteLength": 3017052,
      "name": "floatBufferViews",
      "target": 34963
    },
    {
      "buffer": 0,
      "byteLength": 1788568,
      "byteOffset": 3017052,
      "byteStride": 8,
      "name": "floatBufferViews",
      "target": 34962
    },
    {
      "buffer": 0,
      "byteLength": 5365704,
      "byteOffset": 4805620,
      "byteStride": 12,
      "name": "floatBufferViews",
      "target": 34962
    }
  ],
  "buffers": [
    {
      "byteLength": 10171324,
      "uri": "scene.bin"
    }
  ],
  "extensionsUsed": [
    "KHR_materials_unlit"
  ],
  "images": [
    {
      "uri": "textures/Material.001_baseColor.jpeg"
    },
    {
      "uri": "textures/QS1473-W01-1-2_baseColor.jpeg"
    }
  ],
  "materials": [
    {
      "doubleSided": true,
      "extensions": {
        "KHR_materials_unlit": {}
      },
      "name": "Material.001",
      "pbrMetallicRoughness": {
        "baseColorTexture": {
          "index": 0
        },
        "metallicFactor": 0.0
      }
    },
    {
      "doubleSided": true,
      "extensions": {
        "KHR_materials_unlit": {}
      },
      "name": "QS1473-W01-1-2",
      "pbrMetallicRoughness": {
        "baseColorTexture": {
          "index": 1
        },
        "metallicFactor": 0.0
      }
    }
  ],
  "meshes": [
    {
      "name": "Object_0",
      "primitives": [
        {
          "attributes": {
            "NORMAL": 1,
            "POSITION": 0,
            "TEXCOORD_0": 2
          },
          "indices": 3,
          "material": 0,
          "mode": 4
        }
      ]
    },
    {
      "name": "Object_1",
      "primitives": [
        {
          "attributes": {
            "NORMAL": 5,
            "POSITION": 4,
            "TEXCOORD_0": 6
          },
          "indices": 7,
          "material": 1,
          "mode": 4
        }
      ]
    },
    {
      "name": "Object_2",
      "primitives": [
        {
          "attributes": {
            "NORMAL": 9,
            "POSITION": 8,
            "TEXCOORD_0": 10
          },
          "indices": 11,
          "material": 1,
          "mode": 4
        }
      ]
    },
    {
      "name": "Object_3",
      "primitives": [
        {
          "attributes": {
            "NORMAL": 13,
            "POSITION": 12,
            "TEXCOORD_0": 14
          },
          "indices": 15,
          "material": 1,
          "mode": 4
        }
      ]
    },
    {
      "name": "Object_4",
      "primitives": [
        {
          "attributes": {
            "NORMAL": 17,
            "POSITION": 16,
            "TEXCOORD_0": 18
          },
          "indices": 19,
          "material": 1,
          "mode": 4
        }
      ]
    }
  ],
  "nodes": [
    {
      "children": [
        1
      ],
      "matrix": [
        1.0,
        0.0,
        0.0,
        0.0,
        0.0,
        2.220446049250313e-16,
        -1.0,
        0.0,
        0.0,
        1.0,
        2.220446049250313e-16,
        0.0,
        0.0,
        0.0,
        0.0,
        1.0
      ],
      "name": "Sketchfab_model"
    },
    {
      "children": [
        2
      ],
      "name": "root"
    },
    {
      "children": [
        3,
        5
      ],
      "matrix": [
        1.0,
        0.0,
        0.0,
        0.0,
        0.0,
        2.220446049250313e-16,
        1.0,
        0.0,
        0.0,
        -1.0,
        2.220446049250313e-16,
        0.0,
        0.0,
        0.0,
        0.0,
        1.0
      ],
      "name": "GLTF_SceneRootNode"
    },
    {
      "children": [
        4
      ],
      "name": "Cube_0"
    },
    {
      "mesh": 0,
      "name": "Object_4"
    },
    {
      "children": [
        6,
        7,
        8,
        9
      ],
      "name": "QS1473-W01-1-2_1"
    },
    {
      "mesh": 1,
      "name": "Object_6"
    },
    {
      "mesh": 2,
      "name": "Object_7"
    },
    {
      "mesh": 3,
      "name": "Object_8"
    },
    {
      "mesh": 4,
      "name": "Object_9"
    }
  ],
  "samplers": [
    {
      "magFilter": 9729,
      "minFilter": 9987,
      "wrapS": 10497,
      "wrapT": 10497
    }
  ],
  "scene": 0,
  "scenes": [
    {
      "name": "Sketchfab_Scene",
      "nodes": [
        0
      ]
    }
  ],
  "textures": [
    {
      "sampler": 0,
      "source": 0
    },
    {
      "sampler": 0,
      "source": 1
    }
  ]
}
