<svg version="1.1" id="Layer_1" xmlns="http://www.w3.org/2000/svg" xmlns:xlink="http://www.w3.org/1999/xlink" x="0px" y="0px"
	 width="100%" viewBox="0 0 352 176" enable-background="new 0 0 352 176" xml:space="preserve">
<path fill="white" opacity="1.000000" stroke="none" 
	d="
M195.084198,111.540649 
	C194.633606,110.398300 194.326477,109.622192 194.083115,108.826584 
	C193.379974,106.527908 193.570206,104.366966 195.961990,103.269966 
	C198.234863,102.227509 200.516907,102.256004 202.084625,104.744469 
	C203.753052,107.392815 206.009094,108.528023 209.255585,108.062576 
	C223.244232,106.057007 237.462875,106.213448 251.395676,103.644333 
	C253.190994,103.313293 255.018631,103.069717 256.759491,102.546700 
	C263.241821,100.599167 265.662323,95.931984 263.603760,89.502663 
	C262.541443,86.184906 259.763184,87.291832 257.718811,87.622284 
	C250.337296,88.815376 242.999039,90.284248 235.660385,91.729958 
	C233.064087,92.241425 231.028351,91.602531 229.662231,89.316208 
	C228.628937,87.586876 227.564224,85.720711 228.872086,83.727341 
	C230.186996,81.723236 232.028122,82.493118 233.803513,83.099739 
	C235.572617,83.704193 237.421585,83.819687 239.209351,83.276810 
	C245.580078,81.342262 251.996857,79.527435 258.267120,77.303383 
	C263.899048,75.305740 266.304382,69.908340 264.569366,64.386253 
	C263.818268,61.995640 261.889648,61.994881 260.110687,62.296539 
	C251.102539,63.824062 242.125946,65.536865 233.122177,67.091423 
	C229.736557,67.675964 228.412613,69.811119 228.017639,72.940651 
	C227.758240,74.995979 226.922272,77.741096 224.825378,77.271385 
	C222.282074,76.701675 218.627396,77.830360 217.332184,73.680748 
	C216.007141,69.435501 215.080200,64.983147 216.058990,60.897408 
	C218.103806,52.361744 220.254013,43.707478 225.844955,36.524593 
	C227.292267,34.665161 228.892822,33.030754 231.100723,32.035736 
	C233.768677,30.833389 236.318604,30.777567 238.543976,32.817291 
	C240.704544,34.797611 241.279068,37.336910 240.384476,40.129189 
	C239.530792,42.793819 238.295334,44.862316 234.918152,44.974045 
	C230.415588,45.123009 230.411880,49.145950 230.452484,51.938446 
	C230.499390,55.163090 233.568253,57.104973 236.481979,56.454437 
	C245.230362,54.501225 253.864990,52.020412 262.500122,49.589676 
	C264.933868,48.904602 266.665405,46.727421 266.734039,44.434311 
	C266.984833,36.057327 271.377045,27.578056 265.729645,19.260094 
	C263.679596,16.240570 265.435669,14.227243 269.149719,14.440406 
	C274.951721,14.773404 280.493256,22.226929 278.551086,27.737936 
	C276.549194,33.418461 275.874847,39.264252 274.776642,45.064316 
	C277.377075,46.352554 279.603424,45.669102 281.845093,45.033783 
	C290.662842,42.534740 299.671234,40.959641 308.683502,39.363514 
	C311.323883,38.895893 313.448364,39.458279 316.067596,40.588528 
	C309.856628,48.224442 300.891418,49.045250 293.030334,52.038391 
	C288.994873,53.574909 284.819641,54.740608 280.751526,56.196693 
	C279.054077,56.804253 277.094635,57.345695 276.331146,59.204773 
	C274.944183,62.581997 272.915253,66.316002 274.744385,69.720520 
	C276.598877,73.172318 280.396942,71.331627 283.432587,70.984955 
	C289.508392,70.291100 295.508942,68.380066 301.720062,70.024124 
	C302.822906,70.316048 304.069580,70.130814 304.918396,71.340469 
	C305.370148,73.672653 303.436981,74.545815 301.901825,75.194664 
	C295.031738,78.098373 288.560211,81.982788 281.044006,83.320290 
	C274.930817,84.408112 271.820251,89.802223 273.598358,95.743935 
	C274.378052,98.349388 276.748901,97.958191 278.618134,97.908836 
	C286.269104,97.706825 293.912445,97.171638 301.563568,97.033859 
	C311.048309,96.863060 320.539856,97.070114 330.024536,96.897812 
	C334.012848,96.825363 338.419495,97.014519 337.306427,90.470253 
	C336.957123,88.416382 339.385956,86.574646 341.463898,86.142670 
	C343.686554,85.680611 343.705078,88.043610 344.262238,89.536858 
	C345.217621,92.097389 348.124481,93.075615 347.974823,96.966888 
	C347.621124,106.163712 344.590332,110.151291 335.333801,111.083565 
	C329.580566,111.663002 324.023193,110.585930 318.540009,109.373314 
	C302.825562,105.898087 287.214600,106.901985 271.483521,109.302933 
	C258.016174,111.358360 244.426880,112.603287 230.930389,114.485458 
	C226.014664,115.170990 221.261383,117.204094 216.344864,117.658752 
	C208.745285,118.361542 200.435989,120.505821 195.084198,111.540649 
z"/>
<path fill="white" opacity="1.000000" stroke="none" 
	d="
M124.404144,57.527115 
	C118.754974,60.004421 113.316811,62.065754 108.633034,65.435585 
	C108.856583,67.993065 110.702400,68.644463 112.379852,69.236862 
	C126.351959,74.171211 140.312851,79.141838 154.350922,83.882988 
	C161.694794,86.363258 164.326263,84.067589 163.480591,76.369057 
	C163.315948,74.870270 162.776108,73.373352 164.644791,72.422951 
	C165.046722,72.619400 165.823761,72.777153 165.868637,73.053680 
	C166.910782,79.478233 172.453888,83.405975 174.701538,89.221222 
	C177.854141,97.377808 173.265823,104.928139 164.399963,105.364784 
	C157.060181,105.726280 150.150024,104.097870 143.849808,100.326241 
	C131.132111,92.712784 118.387505,85.135231 106.421982,76.342041 
	C104.042824,74.593651 101.614937,72.863762 98.637108,72.393105 
	C97.088890,74.652931 96.913506,76.998039 97.523987,78.946609 
	C99.409332,84.964378 98.024506,90.816933 97.144028,96.687637 
	C95.673370,106.493530 87.991554,112.553040 78.218109,111.801170 
	C71.082092,111.252205 63.948288,110.672653 56.816944,110.066254 
	C54.866909,109.900429 52.714939,109.961510 52.011703,107.165016 
	C54.039974,104.767502 57.062164,105.183571 59.715149,104.704475 
	C66.245468,103.525200 72.937843,103.059799 78.930786,99.754417 
	C82.760490,97.642174 84.895393,94.635780 84.847946,90.120476 
	C84.769707,82.674126 84.826706,75.226349 84.826706,67.577499 
	C81.143883,66.867668 78.652496,68.897011 76.347954,70.439529 
	C63.624401,78.955917 51.093075,87.758766 38.427837,96.363304 
	C30.560276,101.708389 22.137257,106.105186 13.641368,110.354530 
	C12.312524,111.019165 10.962230,111.736656 9.160751,110.884270 
	C8.625923,107.921806 10.983097,106.899529 12.804548,105.732910 
	C25.712687,97.465477 38.460155,88.972130 50.596329,79.588997 
	C54.278549,76.742073 57.657852,73.593430 60.820824,70.135445 
	C59.522743,68.625198 58.513416,69.860519 57.706287,70.300659 
	C49.536320,74.755928 40.683086,76.844604 31.568226,78.124092 
	C27.768616,78.657455 24.591839,77.796143 22.484392,74.394569 
	C20.460775,71.128288 20.336998,67.847816 22.567673,64.555695 
	C24.680168,61.437988 26.856628,60.043541 30.219364,63.178696 
	C33.600758,66.331245 37.993568,66.419617 42.027176,65.301865 
	C53.062748,62.243805 64.318291,59.514351 73.081932,51.324059 
	C76.212807,48.398018 79.802444,51.353573 83.290703,50.717388 
	C84.105492,46.282402 85.052917,42.221939 80.477409,38.729126 
	C77.248146,36.263996 77.704597,31.834242 78.757957,28.459009 
	C79.709061,25.411434 82.736366,23.909126 86.113525,25.609922 
	C89.678482,27.405302 93.247070,29.253052 96.578377,31.437389 
	C100.552643,34.043316 101.751511,38.664917 100.122360,43.277630 
	C98.679337,47.363361 97.343849,51.503437 97.399857,55.882420 
	C97.457420,60.383110 100.053871,62.071556 103.955452,59.802387 
	C109.415695,56.626690 114.606277,52.981407 119.857079,49.454914 
	C121.599335,48.284798 122.241913,46.426487 122.723373,44.386269 
	C123.638344,40.509045 126.875122,38.685806 130.620010,39.792637 
	C132.207657,40.261887 133.703232,41.044964 135.236710,41.694706 
	C137.546188,42.673233 139.147415,44.169010 139.201599,46.897984 
	C139.259064,49.792538 137.676071,51.605698 135.263992,52.736126 
	C131.796783,54.361053 128.254120,55.824982 124.404144,57.527115 
z"/>
<path fill="white" opacity="1.000000" stroke="none" 
	d="
M133.330231,156.075287 
	C130.463318,154.186157 131.205551,151.539856 131.350616,148.793365 
	C127.135948,149.570480 127.709267,154.381348 124.736023,155.824661 
	C120.768318,154.054749 123.067818,151.488602 123.908188,148.910370 
	C120.705139,149.866226 121.328171,152.937134 120.101936,154.817795 
	C119.403069,155.889648 118.972336,157.557770 117.265663,157.083954 
	C115.436996,156.576248 115.270432,154.885437 115.708260,153.390259 
	C116.378075,151.102875 117.283829,148.955353 114.660606,147.219543 
	C113.965187,146.759384 113.751419,145.806000 114.257797,144.974274 
	C114.987274,143.776077 116.451706,143.399841 117.296555,144.064133 
	C121.098976,147.053970 125.315163,144.933289 129.150238,144.852905 
	C137.151306,144.685226 137.287933,144.351883 135.003433,151.641937 
	C137.328659,151.788864 139.131058,148.265717 142.166534,150.993286 
	C140.527359,154.639786 137.624969,156.159515 133.330231,156.075287 
z"/>
<path fill="white" opacity="1.000000" stroke="none" 
	d="
M49.671860,157.890747 
	C50.432037,151.129028 52.518421,144.912949 51.165836,138.024796 
	C57.607101,136.573685 63.928486,135.583206 70.724037,138.452713 
	C67.969131,142.967194 64.104523,141.188248 60.966072,141.306717 
	C56.357292,141.480698 54.336018,143.452896 54.593475,148.100845 
	C59.045158,149.786819 64.044807,146.308395 68.391212,150.051636 
	C65.607903,153.495438 61.533913,153.131180 58.324387,153.066681 
	C52.748764,152.954651 51.922115,155.617554 52.217949,160.107376 
	C52.356468,162.209732 52.948730,164.392838 51.868820,166.981628 
	C46.948956,164.994034 49.809532,161.224045 49.671860,157.890747 
z"/>
<path fill="white" opacity="1.000000" stroke="none" 
	d="
M251.465515,142.350464 
	C257.579376,142.662750 259.310150,144.598740 257.835358,149.635956 
	C257.401703,151.117172 257.333374,151.961258 258.249390,153.141220 
	C259.556305,154.824707 258.628967,156.320786 257.370575,157.537094 
	C256.013794,158.848526 254.278046,159.126175 252.838730,157.900650 
	C251.207657,156.511856 249.958008,156.424576 247.977173,157.425034 
	C244.358246,159.252945 241.976395,157.751373 241.329468,153.719406 
	C240.518402,148.664612 244.056381,144.564880 251.465515,142.350464 
M246.674118,148.250870 
	C245.470261,149.722061 243.652863,150.998856 245.117035,153.549881 
	C249.164429,152.856674 251.629227,150.363312 253.617691,146.804794 
	C250.849411,144.780365 249.098297,146.724228 246.674118,148.250870 
z"/>
<path fill="white" opacity="1.000000" stroke="none" 
	d="
M227.603729,151.292770 
	C230.984116,153.291840 230.813812,149.843155 232.058014,148.558655 
	C233.390076,147.183456 232.875198,145.125488 233.567490,143.417221 
	C235.935059,143.279022 237.034500,144.363953 236.926086,146.615372 
	C236.798981,149.254181 230.969086,156.501251 228.493332,157.300034 
	C225.438843,158.285522 225.001205,155.724838 223.998367,153.987717 
	C222.752930,154.232727 222.625793,155.395782 222.000839,156.095749 
	C221.228973,156.960205 220.523560,158.054581 219.177567,157.758789 
	C217.661713,157.425674 217.237549,156.120911 216.967865,154.765045 
	C216.566177,152.745483 217.317886,150.432068 215.059021,148.903381 
	C213.467392,147.826248 212.852661,146.182602 214.857407,144.908630 
	C216.664581,143.760208 217.947571,144.842072 218.913025,146.443405 
	C219.580643,147.550751 218.962143,149.190475 220.482376,150.022476 
	C223.134003,150.430954 223.255646,145.466843 226.455978,147.010696 
	C228.242935,147.872711 227.514267,149.572250 227.603729,151.292770 
z"/>
<path fill="white" opacity="1.000000" stroke="none" 
	d="
M294.718933,142.310379 
	C297.116058,141.472641 298.773163,142.061264 299.611481,144.016205 
	C300.405304,145.867340 299.866699,147.732529 298.405792,149.032379 
	C296.556915,150.677368 294.482086,152.068420 292.366425,153.673935 
	C294.812836,154.961502 297.505585,151.160614 299.867065,153.826874 
	C296.336243,159.125244 291.668427,158.706680 285.167206,152.336044 
	C289.110077,149.840134 289.936005,144.574524 294.718933,142.310379 
z"/>
<path fill="white" opacity="1.000000" stroke="none" 
	d="
M273.632538,143.703888 
	C270.442657,146.437256 267.061951,148.940384 271.858704,152.810974 
	C272.785187,153.558563 272.502106,154.631836 271.951050,155.523560 
	C271.310608,156.560028 270.435272,157.338913 269.092987,157.002838 
	C267.776215,156.673157 267.091827,155.485580 267.131134,154.397919 
	C267.231628,151.618118 267.674500,148.850662 267.963623,146.230774 
	C266.921265,144.510788 264.061920,145.410995 263.778839,142.117035 
	C268.883240,142.773346 270.854370,139.193863 272.094513,134.274902 
	C275.777191,137.007156 276.105652,141.530594 280.189362,142.620926 
	C278.064117,145.484222 275.848511,142.964615 273.632538,143.703888 
z"/>
<path fill="white" opacity="1.000000" stroke="none" 
	d="
M102.557266,144.383698 
	C103.168671,144.716080 103.472237,144.871628 103.707733,145.097992 
	C105.563255,146.881638 110.042648,146.702713 108.966736,150.583893 
	C107.881607,154.498367 104.376488,156.676498 100.528107,157.478241 
	C96.852142,158.244080 94.962822,155.985825 94.724983,152.455490 
	C94.451134,148.390427 97.424110,145.226318 102.557266,144.383698 
M105.070587,151.077728 
	C105.000694,146.515305 101.714996,149.042603 100.138031,149.214539 
	C97.308510,149.523056 97.603523,151.879105 97.927078,154.071854 
	C100.920135,154.660110 102.899803,153.358109 105.070587,151.077728 
z"/>
<path fill="white" opacity="1.000000" stroke="none" 
	d="
M79.196945,153.074402 
	C78.692932,154.851974 78.246689,156.246567 77.778931,157.708420 
	C74.934616,155.817841 74.934616,155.817841 76.009796,143.972672 
	C78.615723,144.966553 80.592148,144.012604 82.740471,142.342163 
	C86.397827,139.498352 87.903069,139.923874 90.309448,143.731171 
	C84.126839,143.761292 80.207764,146.512711 79.196945,153.074402 
z"/>
<path fill="white" opacity="1.000000" stroke="none" 
	d="
M314.539551,144.693069 
	C309.134033,147.653503 309.655609,153.281860 307.648224,158.672729 
	C302.721436,153.816025 306.675568,148.984375 305.633820,144.013840 
	C311.307098,147.192627 314.953278,136.685501 320.894348,143.048218 
	C318.703735,144.612732 316.426270,143.104691 314.539551,144.693069 
z"/>
</svg>