<svg version="1.1" id="Layer_1" xmlns="http://www.w3.org/2000/svg" xmlns:xlink="http://www.w3.org/1999/xlink" x="0px" y="0px"
	 width="100%" viewBox="0 0 256 272" enable-background="new 0 0 256 272" xml:space="preserve">
<path fill="black" opacity="1.000000" stroke-width="1" stroke="black"
	d="
M178.228287,193.889618 
	C183.108292,193.293869 187.604477,192.911316 191.992157,192.004074 
	C197.057510,190.956711 201.659500,192.932968 206.878754,192.870529 
	C205.969162,196.407028 203.695328,197.428574 201.469070,198.410385 
	C194.317825,201.564240 187.156631,204.763153 179.424759,206.210342 
	C175.418976,206.960098 173.927185,208.872696 174.019501,213.034393 
	C174.216171,221.900711 174.063324,222.461731 182.955826,221.537277 
	C195.735138,220.208740 208.557419,221.173645 221.322632,220.040253 
	C224.731415,219.737579 228.226303,220.262924 231.671097,220.539520 
	C237.385956,220.998383 239.321640,219.341324 240.190170,213.681641 
	C240.554581,211.307129 242.397217,209.354126 244.630096,208.883224 
	C246.723999,208.441589 246.685104,210.865250 247.383133,212.324661 
	C248.694824,215.067062 251.433289,216.561646 251.408829,220.621414 
	C251.357269,229.181137 247.946793,233.607590 239.085770,234.581070 
	C232.334534,235.322769 225.833221,233.925339 219.352875,232.695587 
	C205.808914,230.125458 192.224564,230.239746 178.661255,231.785202 
	C161.663162,233.722000 144.710297,236.075150 127.765152,238.443481 
	C123.509773,239.038223 119.290123,240.156570 115.176521,241.429932 
	C110.031128,243.022659 104.906250,241.827820 99.822784,241.608322 
	C95.106041,241.404678 90.584671,235.313187 90.692589,230.516617 
	C90.734550,228.651810 91.550323,227.317139 93.261841,226.608719 
	C95.123268,225.838242 97.172340,225.826630 98.176155,227.663727 
	C101.168831,233.140671 105.599312,232.395737 110.670624,231.536880 
	C120.165428,229.928864 129.923355,230.844437 139.433640,228.880920 
	C146.100754,227.504425 152.999008,227.235992 159.461288,224.874954 
	C163.148758,223.527725 165.759460,213.962036 163.015900,211.258286 
	C160.896286,209.169464 157.930313,210.254929 155.384216,210.664673 
	C148.324829,211.800766 141.292709,213.113495 134.265533,214.439697 
	C130.435989,215.162430 128.076416,213.535507 127.115547,209.975677 
	C126.290184,206.917892 127.185303,205.030075 130.892151,205.659729 
	C142.119965,207.566910 151.537964,202.053024 161.175278,197.875854 
	C164.629654,196.378601 166.120911,188.490280 164.324844,185.208145 
	C163.244125,183.233246 161.354965,183.282471 159.497559,183.611465 
	C150.669571,185.175018 141.862503,186.861526 133.019775,188.334900 
	C128.923584,189.017426 126.241882,190.766068 125.880608,195.245377 
	C125.716736,197.277237 124.625450,200.308838 122.836891,199.607468 
	C120.422630,198.660706 117.010803,199.783554 115.456490,196.467087 
	C113.224213,191.703995 112.771820,186.491760 113.925491,181.789841 
	C116.092873,172.956467 118.534920,164.017044 124.555984,156.729309 
	C125.400146,155.707550 126.317032,154.712036 127.343529,153.881424 
	C129.957764,151.766083 132.821991,150.543518 136.029816,152.579590 
	C138.700043,154.274414 139.782471,156.862701 139.065857,159.908905 
	C138.308624,163.127808 137.019684,165.641861 132.786240,165.645554 
	C129.134842,165.648727 129.033722,169.350494 128.265289,171.921921 
	C127.542114,174.341904 128.704895,176.187012 131.021286,177.094742 
	C132.229721,177.568268 133.641083,178.101395 134.848709,177.907974 
	C144.364044,176.383896 153.723907,174.206131 162.691040,170.575119 
	C165.034866,169.626068 166.919540,167.816772 166.922607,165.430435 
	C166.934036,156.530304 171.632965,147.381927 165.666977,138.744446 
	C164.887115,137.615356 164.781570,136.182678 165.794434,135.014328 
	C166.821335,133.829773 168.151886,134.087433 169.495056,134.388062 
	C176.801163,136.023346 181.026474,143.304321 178.033005,149.992111 
	C175.657486,155.299286 176.502686,161.115555 174.002502,166.470154 
	C177.193848,167.705811 179.746246,166.931961 182.214050,166.185608 
	C191.484879,163.381790 201.003220,161.793243 210.518967,160.150375 
	C212.961151,159.728760 215.103012,160.138351 217.516190,161.464813 
	C213.437927,167.502274 206.809235,168.773529 200.795273,170.941757 
	C194.542358,173.196121 188.122986,174.984818 181.837814,177.154999 
	C176.424072,179.024307 173.058746,185.586319 174.212387,191.190369 
	C174.655350,193.342087 176.030884,193.744904 178.228287,193.889618 
z"/>
<path fill="black" opacity="1.000000" stroke-width="1" stroke="black"
	d="
M108.810913,84.636581 
	C116.087608,81.600639 121.966614,76.914452 128.206802,72.817657 
	C129.848679,71.739738 130.287308,69.834923 130.532974,68.002296 
	C131.009903,64.444534 133.460327,63.268555 136.529510,63.275379 
	C140.753128,63.284779 145.811569,66.838951 146.239471,69.862877 
	C146.741776,73.412560 144.865494,75.393250 141.768707,76.745827 
	C134.450684,79.942070 127.184341,83.257568 119.919510,86.573914 
	C118.443367,87.247765 116.742874,87.653152 115.763191,89.265091 
	C116.111183,91.935211 118.365356,92.641747 120.285118,93.324142 
	C133.918976,98.170418 147.559784,103.003448 161.276535,107.607887 
	C169.453781,110.352829 172.137878,107.992844 171.057098,99.519325 
	C170.908600,98.355003 170.596939,97.175652 172.052002,96.566147 
	C172.374695,96.640160 172.924515,96.657455 172.953064,96.788429 
	C174.317749,103.045601 179.547012,107.130569 181.903839,112.868233 
	C185.150482,120.772125 180.487915,128.675064 171.799942,129.214737 
	C165.526749,129.604446 159.532257,128.272308 154.015732,125.210373 
	C139.881454,117.365158 126.256226,108.710480 113.116493,99.291138 
	C110.990967,97.767426 108.914040,96.087479 105.862862,95.723816 
	C104.879555,99.430611 105.483192,102.795219 105.734329,106.231064 
	C106.389320,115.192108 105.412918,123.791435 99.030510,130.939651 
	C96.664116,133.589996 93.870811,135.420364 90.388107,135.214432 
	C80.933678,134.655380 71.496696,133.794174 62.057175,133.000671 
	C61.063946,132.917191 60.135639,132.440903 59.778194,131.152115 
	C60.330437,128.860840 62.453362,129.185303 64.124016,128.895706 
	C68.881027,128.071091 73.703346,127.569466 78.414955,126.548424 
	C86.919601,124.705391 94.185753,120.739471 92.896790,110.340965 
	C92.113358,104.020828 92.752312,97.524384 92.752312,90.593040 
	C86.340927,92.282204 81.345398,94.852737 76.793694,98.166222 
	C62.933472,108.255981 49.035427,118.278313 34.263252,127.021446 
	C28.765667,130.275284 23.100992,133.118225 16.420498,135.561920 
	C16.968536,131.008377 19.833668,129.750702 22.240971,128.250900 
	C37.380970,118.818306 52.102264,108.809128 65.598404,97.096024 
	C67.717087,95.257248 69.700470,93.262558 71.381180,90.678253 
	C68.182617,92.207535 64.928368,93.631485 61.796600,95.287117 
	C54.314579,99.242561 46.226768,101.044952 37.936039,102.008720 
	C33.483887,102.526268 30.807278,100.070045 29.336744,95.974976 
	C27.797113,91.687492 29.548525,88.502609 32.603394,85.805542 
	C34.112759,84.472969 35.671864,85.008354 37.015369,86.383980 
	C40.722153,90.179375 45.331631,90.234093 50.034275,89.227676 
	C59.057709,87.296539 67.311348,83.256248 75.673180,79.536865 
	C76.274475,79.269409 77.001457,78.968483 77.334328,78.462349 
	C80.787788,73.211273 85.545418,72.859962 91.183685,75.326759 
	C91.800392,70.398849 93.002907,66.154182 88.515770,62.751503 
	C85.936806,60.795826 85.614960,57.614574 85.845390,54.520035 
	C86.178902,50.041126 89.921165,47.759197 93.927254,49.730492 
	C97.357048,51.418201 100.813026,53.151157 103.949501,55.311207 
	C107.742912,57.923660 109.007935,61.766155 107.740578,66.289444 
	C106.438354,70.937164 105.012726,75.546700 105.258224,80.479271 
	C105.368134,82.687477 105.742012,84.496056 108.810913,84.636581 
z"/>
</svg>