{
  "accessors": [
    {
      "bufferView": 2,
      "componentType": 5126,
      "count": 24,
      "max": [
        1.0,
        1.0,
        1.0
      ],
      "min": [
        -1.0,
        -1.0,
        -1.0
      ],
      "type": "VEC3"
    },
    {
      "bufferView": 2,
      "byteOffset": 288,
      "componentType": 5126,
      "count": 24,
      "max": [
        1.0,
        1.0,
        1.0
      ],
      "min": [
        -1.0,
        -1.0,
        -1.0
      ],
      "type": "VEC3"
    },
    {
      "bufferView": 1,
      "componentType": 5126,
      "count": 24,
      "max": [
        0.7499567270278931,
        0.9999133944511414
      ],
      "min": [
        8.658754813950509e-05,
        8.660554885864258e-05
      ],
      "type": "VEC2"
    },
    {
      "bufferView": 0,
      "componentType": 5125,
      "count": 36,
      "type": "SCALAR"
    },
    {
      "bufferView": 2,
      "byteOffset": 576,
      "componentType": 5126,
      "count": 65532,
      "max": [
        7.169990062713623,
        5.957147598266602,
        2.3857555389404297
      ],
      "min": [
        -4.6486968994140625,
        -5.3777875900268555,
        -2.8751583099365234
      ],
      "type": "VEC3"
    },
    {
      "bufferView": 2,
      "byteOffset": 786960,
      "componentType": 5126,
      "count": 65532,
      "max": [
        1.0,
        1.0,
        1.0
      ],
      "min": [
        -1.0,
        -1.0,
        -1.0
      ],
      "type": "VEC3"
    },
    {
      "bufferView": 1,
      "byteOffset": 192,
      "componentType": 5126,
      "count": 65532,
      "max": [
        0.9995309710502625,
        0.9993069767951965
      ],
      "min": [
        0.0003499999875202775,
        0.0003319978713989258
      ],
      "type": "VEC2"
    },
    {
      "bufferView": 0,
      "byteOffset": 144,
      "componentType": 5125,
      "count": 282798,
      "type": "SCALAR"
    },
    {
      "bufferView": 2,
      "byteOffset": 1573344,
      "componentType": 5126,
      "count": 65534,
      "max": [
        7.171771049499512,
        5.942516326904297,
        3.3342015743255615
      ],
      "min": [
        -4.6486968994140625,
        -5.393431663513184,
        -2.702618360519409
      ],
      "type": "VEC3"
    },
    {
      "bufferView": 2,
      "byteOffset": 2359752,
      "componentType": 5126,
      "count": 65534,
      "max": [
        0.9993987679481506,
        0.9999718070030212,
        0.9998897910118103
      ],
      "min": [
        -0.9998524188995361,
        -0.999972403049469,
        -0.9999207854270935
      ],
      "type": "VEC3"
    },
    {
      "bufferView": 1,
      "byteOffset": 524448,
      "componentType": 5126,
      "count": 65534,
      "max": [
        0.9981899857521057,
        0.9989489912986755
      ],
      "min": [
        0.0002840000088326633,
        0.0002790093421936035
      ],
      "type": "VEC2"
    },
    {
      "bufferView": 0,
      "byteOffset": 1131336,
      "componentType": 5125,
      "count": 231825,
      "type": "SCALAR"
    },
    {
      "bufferView": 2,
      "byteOffset": 3146160,
      "componentType": 5126,
      "count": 65532,
      "max": [
        7.171771049499512,
        5.950170516967773,
        3.3384716510772705
      ],
      "min": [
        -4.6486968994140625,
        -5.396520614624023,
        -5.020164489746094
      ],
      "type": "VEC3"
    },
    {
      "bufferView": 2,
      "byteOffset": 3932544,
      "componentType": 5126,
      "count": 65532,
      "max": [
        0.9999111294746399,
        0.9999718070030212,
        1.0
      ],
      "min": [
        -0.9999668002128601,
        -0.999972403049469,
        -1.0
      ],
      "type": "VEC3"
    },
    {
      "bufferView": 1,
      "byteOffset": 1048720,
      "componentType": 5126,
      "count": 65532,
      "max": [
        0.9982929825782776,
        0.9980159997940063
      ],
      "min": [
        0.0002789999998640269,
        0.00028198957443237305
      ],
      "type": "VEC2"
    },
    {
      "bufferView": 0,
      "byteOffset": 2058636,
      "componentType": 5125,
      "count": 152103,
      "type": "SCALAR"
    },
    {
      "bufferView": 2,
      "byteOffset": 4718928,
      "componentType": 5126,
      "count": 35161,
      "max": [
        7.169990062713623,
        5.957147598266602,
        3.3384716510772705
      ],
      "min": [
        -4.6486968994140625,
        -5.393614768981934,
        -5.036113262176514
      ],
      "type": "VEC3"
    },
    {
      "bufferView": 2,
      "byteOffset": 5140860,
      "componentType": 5126,
      "count": 35161,
      "max": [
        1.0,
        1.0,
        1.0
      ],
      "min": [
        -1.0,
        -1.0,
        -1.0
      ],
      "type": "VEC3"
    },
    {
      "bufferView": 1,
      "byteOffset": 1572976,
      "componentType": 5126,
      "count": 35161,
      "max": [
        0.9988459944725037,
        0.9983479976654053
      ],
      "min": [
        0.000307999987853691,
        0.00029098987579345703
      ],
      "type": "VEC2"
    },
    {
      "bufferView": 0,
      "byteOffset": 2667048,
      "componentType": 5125,
      "count": 54078,
      "type": "SCALAR"
    }
  ],
  "asset": {
    "extras": {
      "author": "ffish.asia / floraZia.com (https://sketchfab.com/ffishAsia-and-floraZia)",
      "license": "CC-BY-4.0 (http://creativecommons.org/licenses/by/4.0/)",
      "source": "https://sketchfab.com/3d-models/freshwater-prawn-m-formosense-36b7fdb36bdb430f831e64664bcc0aff",
      "title": "ミナミテナガエビ ♂ Freshwater Prawn, M. formosense"
    },
    "generator": "Sketchfab-13.58.0",
    "version": "2.0"
  },
  "bufferViews": [
    {
      "buffer": 0,
      "byteLength": 2883360,
      "name": "floatBufferViews",
      "target": 34963
    },
    {
      "buffer": 0,
      "byteLength": 1854264,
      "byteOffset": 2883360,
      "byteStride": 8,
      "name": "floatBufferViews",
      "target": 34962
    },
    {
      "buffer": 0,
      "byteLength": 5562792,
      "byteOffset": 4737624,
      "byteStride": 12,
      "name": "floatBufferViews",
      "target": 34962
    }
  ],
  "buffers": [
    {
      "byteLength": 10300416,
      "uri": "scene.bin"
    }
  ],
  "extensionsUsed": [
    "KHR_materials_unlit"
  ],
  "images": [
    {
      "uri": "textures/Material.001_baseColor.jpeg"
    },
    {
      "uri": "textures/Q11938-1all-4_baseColor.jpeg"
    }
  ],
  "materials": [
    {
      "doubleSided": true,
      "extensions": {
        "KHR_materials_unlit": {}
      },
      "name": "Material.001",
      "pbrMetallicRoughness": {
        "baseColorTexture": {
          "index": 0
        },
        "metallicFactor": 0.0
      }
    },
    {
      "doubleSided": true,
      "extensions": {
        "KHR_materials_unlit": {}
      },
      "name": "Q11938-1all-4",
      "pbrMetallicRoughness": {
        "baseColorTexture": {
          "index": 1
        },
        "metallicFactor": 0.0
      }
    }
  ],
  "meshes": [
    {
      "name": "Object_0",
      "primitives": [
        {
          "attributes": {
            "NORMAL": 1,
            "POSITION": 0,
            "TEXCOORD_0": 2
          },
          "indices": 3,
          "material": 0,
          "mode": 4
        }
      ]
    },
    {
      "name": "Object_1",
      "primitives": [
        {
          "attributes": {
            "NORMAL": 5,
            "POSITION": 4,
            "TEXCOORD_0": 6
          },
          "indices": 7,
          "material": 1,
          "mode": 4
        }
      ]
    },
    {
      "name": "Object_2",
      "primitives": [
        {
          "attributes": {
            "NORMAL": 9,
            "POSITION": 8,
            "TEXCOORD_0": 10
          },
          "indices": 11,
          "material": 1,
          "mode": 4
        }
      ]
    },
    {
      "name": "Object_3",
      "primitives": [
        {
          "attributes": {
            "NORMAL": 13,
            "POSITION": 12,
            "TEXCOORD_0": 14
          },
          "indices": 15,
          "material": 1,
          "mode": 4
        }
      ]
    },
    {
      "name": "Object_4",
      "primitives": [
        {
          "attributes": {
            "NORMAL": 17,
            "POSITION": 16,
            "TEXCOORD_0": 18
          },
          "indices": 19,
          "material": 1,
          "mode": 4
        }
      ]
    }
  ],
  "nodes": [
    {
      "children": [
        1
      ],
      "matrix": [
        1.0,
        0.0,
        0.0,
        0.0,
        0.0,
        2.220446049250313e-16,
        -1.0,
        0.0,
        0.0,
        1.0,
        2.220446049250313e-16,
        0.0,
        0.0,
        0.0,
        0.0,
        1.0
      ],
      "name": "Sketchfab_model"
    },
    {
      "children": [
        2
      ],
      "name": "root"
    },
    {
      "children": [
        3,
        5
      ],
      "matrix": [
        1.0,
        0.0,
        0.0,
        0.0,
        0.0,
        2.220446049250313e-16,
        1.0,
        0.0,
        0.0,
        -1.0,
        2.220446049250313e-16,
        0.0,
        0.0,
        0.0,
        0.0,
        1.0
      ],
      "name": "GLTF_SceneRootNode"
    },
    {
      "children": [
        4
      ],
      "matrix": [
        -0.0007839095054375947,
        -0.42320785850898945,
        0.0015094917378864695,
        0.0,
        0.0019538149257001592,
        -0.00151309736003167,
        -0.42320409136982384,
        0.0,
        0.42320607025606316,
        -0.0007769274135891967,
        0.001956601839201143,
        0.0,
        7.3743391036987305,
        0.003084897994995117,
        -0.00019154527399223298,
        1.0
      ],
      "name": "Cube_2"
    },
    {
      "mesh": 0,
      "name": "Object_4"
    },
    {
      "children": [
        6,
        7,
        8,
        9
      ],
      "matrix": [
        -0.696128396683539,
        0.3495415114992421,
        0.6270773373911948,
        0.0,
        -0.6894569022059072,
        -0.5689957684948967,
        -0.4482108827723127,
        0.0,
        0.2001360420599927,
        -0.7443551216816654,
        0.6370879197527087,
        0.0,
        -0.10597008466720581,
        0.0,
        0.1470547467470169,
        1.0
      ],
      "name": "Q11938-1all-4_5"
    },
    {
      "mesh": 1,
      "name": "Object_6"
    },
    {
      "mesh": 2,
      "name": "Object_7"
    },
    {
      "mesh": 3,
      "name": "Object_8"
    },
    {
      "mesh": 4,
      "name": "Object_9"
    }
  ],
  "samplers": [
    {
      "magFilter": 9729,
      "minFilter": 9987,
      "wrapS": 10497,
      "wrapT": 10497
    }
  ],
  "scene": 0,
  "scenes": [
    {
      "name": "Sketchfab_Scene",
      "nodes": [
        0
      ]
    }
  ],
  "textures": [
    {
      "sampler": 0,
      "source": 0
    },
    {
      "sampler": 0,
      "source": 1
    }
  ]
}
